<mxfile host="app.diagrams.net" modified="2021-09-08T11:22:59.991Z" agent="5.0 (Windows NT 10.0; Win64; x64) AppleWebKit/537.36 (KHTML, like Gecko) Chrome/93.0.4577.63 Safari/537.36 Edg/93.0.961.38" etag="pJ64wikPUbi6J37NxhTK" version="15.0.6" type="github">
  <diagram id="o79PtzUjfggAHvfddpBF" name="Page-1">
    <mxGraphModel dx="1271" dy="652" grid="1" gridSize="10" guides="1" tooltips="1" connect="1" arrows="1" fold="1" page="1" pageScale="1" pageWidth="827" pageHeight="1169" background="#114B5F" math="0" shadow="0">
      <root>
        <mxCell id="0" />
        <mxCell id="1" parent="0" />
        <mxCell id="XO-SGRxmhx0Tcxkr1Sh6-1" value="Lonavala" style="ellipse;whiteSpace=wrap;html=1;fillColor=#F45B69;strokeColor=#028090;fontColor=#E4FDE1;" vertex="1" parent="1">
          <mxGeometry x="370" y="505" width="120" height="80" as="geometry" />
        </mxCell>
        <mxCell id="XO-SGRxmhx0Tcxkr1Sh6-2" value="Kanyakumari" style="ellipse;whiteSpace=wrap;html=1;fillColor=#F45B69;strokeColor=#028090;fontColor=#E4FDE1;" vertex="1" parent="1">
          <mxGeometry x="640" y="130" width="120" height="80" as="geometry" />
        </mxCell>
        <mxCell id="XO-SGRxmhx0Tcxkr1Sh6-3" value="Nainital" style="ellipse;whiteSpace=wrap;html=1;fillColor=#F45B69;strokeColor=#028090;fontColor=#E4FDE1;" vertex="1" parent="1">
          <mxGeometry x="500" y="470" width="120" height="80" as="geometry" />
        </mxCell>
        <mxCell id="XO-SGRxmhx0Tcxkr1Sh6-4" value="Sikkim" style="ellipse;whiteSpace=wrap;html=1;fillColor=#F45B69;strokeColor=#028090;fontColor=#E4FDE1;" vertex="1" parent="1">
          <mxGeometry x="610" y="410" width="120" height="80" as="geometry" />
        </mxCell>
        <mxCell id="XO-SGRxmhx0Tcxkr1Sh6-5" value="Hampi" style="ellipse;whiteSpace=wrap;html=1;fillColor=#F45B69;strokeColor=#028090;fontColor=#E4FDE1;" vertex="1" parent="1">
          <mxGeometry x="660" y="320" width="120" height="80" as="geometry" />
        </mxCell>
        <mxCell id="XO-SGRxmhx0Tcxkr1Sh6-6" value="Varanasi" style="ellipse;whiteSpace=wrap;html=1;fillColor=#F45B69;strokeColor=#028090;fontColor=#E4FDE1;" vertex="1" parent="1">
          <mxGeometry x="690" y="220" width="120" height="80" as="geometry" />
        </mxCell>
        <mxCell id="XO-SGRxmhx0Tcxkr1Sh6-7" value="McleodGanj" style="ellipse;whiteSpace=wrap;html=1;fillColor=#F45B69;strokeColor=#028090;fontColor=#E4FDE1;" vertex="1" parent="1">
          <mxGeometry x="550" y="70" width="120" height="80" as="geometry" />
        </mxCell>
        <mxCell id="XO-SGRxmhx0Tcxkr1Sh6-8" value="Darjeeling" style="ellipse;whiteSpace=wrap;html=1;fillColor=#F45B69;strokeColor=#028090;fontColor=#E4FDE1;" vertex="1" parent="1">
          <mxGeometry x="440" y="20" width="120" height="80" as="geometry" />
        </mxCell>
        <mxCell id="XO-SGRxmhx0Tcxkr1Sh6-31" value="" style="edgeStyle=orthogonalEdgeStyle;curved=0;rounded=1;sketch=0;orthogonalLoop=1;jettySize=auto;html=1;fontColor=#E4FDE1;strokeColor=#028090;fillColor=#F45B69;entryX=0.653;entryY=0.034;entryDx=0;entryDy=0;entryPerimeter=0;exitX=1;exitY=1;exitDx=0;exitDy=0;" edge="1" parent="1" source="XO-SGRxmhx0Tcxkr1Sh6-29" target="XO-SGRxmhx0Tcxkr1Sh6-10">
          <mxGeometry relative="1" as="geometry">
            <mxPoint x="160" y="250" as="sourcePoint" />
            <Array as="points">
              <mxPoint x="160" y="238" />
              <mxPoint x="160" y="270" />
              <mxPoint x="110" y="270" />
              <mxPoint x="110" y="300" />
              <mxPoint x="98" y="300" />
            </Array>
          </mxGeometry>
        </mxCell>
        <mxCell id="XO-SGRxmhx0Tcxkr1Sh6-10" value="Tour Planning System" style="ellipse;whiteSpace=wrap;html=1;fillColor=#F45B69;strokeColor=#028090;fontColor=#E4FDE1;" vertex="1" parent="1">
          <mxGeometry x="20" y="310" width="120" height="80" as="geometry" />
        </mxCell>
        <mxCell id="XO-SGRxmhx0Tcxkr1Sh6-11" value="Switch case(user input)" style="ellipse;whiteSpace=wrap;html=1;fillColor=#F45B69;strokeColor=#028090;fontColor=#E4FDE1;" vertex="1" parent="1">
          <mxGeometry x="220" y="300" width="120" height="80" as="geometry" />
        </mxCell>
        <mxCell id="XO-SGRxmhx0Tcxkr1Sh6-17" value="" style="edgeStyle=elbowEdgeStyle;elbow=vertical;endArrow=classic;html=1;entryX=0.317;entryY=0.95;entryDx=0;entryDy=0;entryPerimeter=0;exitX=1.017;exitY=0.588;exitDx=0;exitDy=0;exitPerimeter=0;labelBackgroundColor=#114B5F;strokeColor=#028090;fontColor=#E4FDE1;" edge="1" parent="1" source="XO-SGRxmhx0Tcxkr1Sh6-11" target="XO-SGRxmhx0Tcxkr1Sh6-8">
          <mxGeometry width="50" height="50" relative="1" as="geometry">
            <mxPoint x="390" y="290" as="sourcePoint" />
            <mxPoint x="440" y="240" as="targetPoint" />
            <Array as="points">
              <mxPoint x="420" y="250" />
            </Array>
          </mxGeometry>
        </mxCell>
        <mxCell id="XO-SGRxmhx0Tcxkr1Sh6-18" value="" style="edgeStyle=elbowEdgeStyle;elbow=vertical;endArrow=classic;html=1;entryX=0.233;entryY=0.9;entryDx=0;entryDy=0;entryPerimeter=0;exitX=1;exitY=0.588;exitDx=0;exitDy=0;exitPerimeter=0;labelBackgroundColor=#114B5F;strokeColor=#028090;fontColor=#E4FDE1;" edge="1" parent="1" source="XO-SGRxmhx0Tcxkr1Sh6-11" target="XO-SGRxmhx0Tcxkr1Sh6-7">
          <mxGeometry width="50" height="50" relative="1" as="geometry">
            <mxPoint x="390" y="290" as="sourcePoint" />
            <mxPoint x="440" y="240" as="targetPoint" />
            <Array as="points">
              <mxPoint x="580" y="240" />
              <mxPoint x="490" y="240" />
            </Array>
          </mxGeometry>
        </mxCell>
        <mxCell id="XO-SGRxmhx0Tcxkr1Sh6-19" value="" style="edgeStyle=elbowEdgeStyle;elbow=vertical;endArrow=classic;html=1;entryX=0.383;entryY=0.05;entryDx=0;entryDy=0;entryPerimeter=0;exitX=1;exitY=0.425;exitDx=0;exitDy=0;exitPerimeter=0;labelBackgroundColor=#114B5F;strokeColor=#028090;fontColor=#E4FDE1;" edge="1" parent="1" source="XO-SGRxmhx0Tcxkr1Sh6-11" target="XO-SGRxmhx0Tcxkr1Sh6-3">
          <mxGeometry width="50" height="50" relative="1" as="geometry">
            <mxPoint x="390" y="290" as="sourcePoint" />
            <mxPoint x="440" y="240" as="targetPoint" />
          </mxGeometry>
        </mxCell>
        <mxCell id="XO-SGRxmhx0Tcxkr1Sh6-20" value="" style="edgeStyle=elbowEdgeStyle;elbow=vertical;endArrow=classic;html=1;entryX=0.5;entryY=0;entryDx=0;entryDy=0;exitX=1;exitY=0.5;exitDx=0;exitDy=0;labelBackgroundColor=#114B5F;strokeColor=#028090;fontColor=#E4FDE1;" edge="1" parent="1" source="XO-SGRxmhx0Tcxkr1Sh6-11" target="XO-SGRxmhx0Tcxkr1Sh6-1">
          <mxGeometry width="50" height="50" relative="1" as="geometry">
            <mxPoint x="400" y="330" as="sourcePoint" />
            <mxPoint x="480" y="370" as="targetPoint" />
            <Array as="points">
              <mxPoint x="320" y="340" />
            </Array>
          </mxGeometry>
        </mxCell>
        <mxCell id="XO-SGRxmhx0Tcxkr1Sh6-21" value="" style="edgeStyle=elbowEdgeStyle;elbow=vertical;endArrow=classic;html=1;entryX=0.092;entryY=0.763;entryDx=0;entryDy=0;entryPerimeter=0;labelBackgroundColor=#114B5F;strokeColor=#028090;fontColor=#E4FDE1;" edge="1" parent="1" target="XO-SGRxmhx0Tcxkr1Sh6-6">
          <mxGeometry width="50" height="50" relative="1" as="geometry">
            <mxPoint x="340" y="341" as="sourcePoint" />
            <mxPoint x="440" y="240" as="targetPoint" />
          </mxGeometry>
        </mxCell>
        <mxCell id="XO-SGRxmhx0Tcxkr1Sh6-22" value="" style="edgeStyle=elbowEdgeStyle;elbow=vertical;endArrow=classic;html=1;labelBackgroundColor=#114B5F;strokeColor=#028090;fontColor=#E4FDE1;" edge="1" parent="1">
          <mxGeometry width="50" height="50" relative="1" as="geometry">
            <mxPoint x="340" y="340" as="sourcePoint" />
            <mxPoint x="669" y="210" as="targetPoint" />
            <Array as="points">
              <mxPoint x="539" y="290" />
              <mxPoint x="669" y="205" />
            </Array>
          </mxGeometry>
        </mxCell>
        <mxCell id="XO-SGRxmhx0Tcxkr1Sh6-23" value="" style="edgeStyle=elbowEdgeStyle;elbow=vertical;endArrow=classic;html=1;entryX=0;entryY=0;entryDx=0;entryDy=0;labelBackgroundColor=#114B5F;strokeColor=#028090;fontColor=#E4FDE1;" edge="1" parent="1" target="XO-SGRxmhx0Tcxkr1Sh6-5">
          <mxGeometry width="50" height="50" relative="1" as="geometry">
            <mxPoint x="340" y="340" as="sourcePoint" />
            <mxPoint x="440" y="240" as="targetPoint" />
          </mxGeometry>
        </mxCell>
        <mxCell id="XO-SGRxmhx0Tcxkr1Sh6-25" value="" style="endArrow=classic;html=1;exitX=1;exitY=0.5;exitDx=0;exitDy=0;entryX=0.017;entryY=0.625;entryDx=0;entryDy=0;entryPerimeter=0;labelBackgroundColor=#114B5F;strokeColor=#028090;fontColor=#E4FDE1;" edge="1" parent="1" source="XO-SGRxmhx0Tcxkr1Sh6-10" target="XO-SGRxmhx0Tcxkr1Sh6-11">
          <mxGeometry relative="1" as="geometry">
            <mxPoint x="220" y="240" as="sourcePoint" />
            <mxPoint x="180" y="220" as="targetPoint" />
            <Array as="points" />
          </mxGeometry>
        </mxCell>
        <mxCell id="XO-SGRxmhx0Tcxkr1Sh6-29" value="Login System" style="ellipse;whiteSpace=wrap;html=1;fillColor=#F45B69;strokeColor=#028090;fontColor=#E4FDE1;" vertex="1" parent="1">
          <mxGeometry x="30" y="170" width="120" height="80" as="geometry" />
        </mxCell>
      </root>
    </mxGraphModel>
  </diagram>
</mxfile>
